<?xml version="1.0" encoding="utf-8"?>
<!-- Generator: Adobe Illustrator 21.0.2, SVG Export Plug-In . SVG Version: 6.00 Build 0)  -->
<svg version="1.1" id="SvgjsSvg1023" xmlns:svgjs="http://svgjs.com/svgjs"
	 xmlns="http://www.w3.org/2000/svg" xmlns:xlink="http://www.w3.org/1999/xlink" x="0px" y="0px" viewBox="0 0 26 26"
	 style="enable-background:new 0 0 26 26;" xml:space="preserve">
<style type="text/css">
	.st0{fill:#FFFFFF;}
</style>
<title>instagram</title>
<desc>Created with Avocode.</desc>
<path id="SvgjsPath1025" class="st0" d="M22.7,25.8H3.5c-1.8,0-3.2-1.4-3.2-3.2V3.4c0-1.8,1.4-3.2,3.2-3.2h19.2
	c1.8,0,3.2,1.4,3.2,3.2v19.2C25.9,24.4,24.5,25.8,22.7,25.8z M13.1,8c-2,0-3.7,1.2-4.5,2.9h0c0,0,0,0,0,0.1c0,0.1-0.1,0.2-0.1,0.3
	c0,0.1,0,0.1-0.1,0.2c0,0.1-0.1,0.2-0.1,0.3c0,0,0,0.1,0,0.2c0,0.1,0,0.2-0.1,0.4c0,0.1,0,0.1,0,0.2c0,0.2,0,0.3,0,0.5
	c0,2.7,2.2,5,5,5c2.7,0,5-2.2,5-5c0-0.2,0-0.4,0-0.5c0-0.1,0-0.1,0-0.2c0-0.1,0-0.2-0.1-0.4c0-0.1,0-0.1,0-0.2
	c0-0.1-0.1-0.2-0.1-0.3c0-0.1,0-0.1-0.1-0.2c0-0.1-0.1-0.2-0.1-0.3c0,0,0,0,0-0.1h0C16.8,9.2,15.1,8,13.1,8z M23,4.4
	c0-0.7-0.6-1.3-1.3-1.3h-2.6c-0.7,0-1.3,0.6-1.3,1.3v2.6c0,0.7,0.6,1.3,1.3,1.3h2.6c0.7,0,1.3-0.6,1.3-1.3V4.4z M23,10.9h-2.4
	c0.2,0.7,0.3,1.4,0.3,2.1c0,4.3-3.5,7.8-7.8,7.8c-4.3,0-7.8-3.5-7.8-7.8c0-0.7,0.1-1.4,0.3-2.1H3.2v10.7c0,0.7,0.6,1.3,1.3,1.3h17.3
	c0.7,0,1.3-0.6,1.3-1.3V10.9z"/>
</svg>
