<?xml version="1.0" encoding="utf-8"?>
<!-- Generator: Adobe Illustrator 21.0.2, SVG Export Plug-In . SVG Version: 6.00 Build 0)  -->
<svg version="1.1" id="SvgjsSvg1020" xmlns:svgjs="http://svgjs.com/svgjs"
	 xmlns="http://www.w3.org/2000/svg" xmlns:xlink="http://www.w3.org/1999/xlink" x="0px" y="0px" viewBox="0 0 21 26"
	 style="enable-background:new 0 0 21 26;" xml:space="preserve">
<style type="text/css">
	.st0{fill:#FFFFFF;}
</style>
<title>pinterest</title>
<desc>Created with Avocode.</desc>
<path id="SvgjsPath1022" class="st0" d="M9.1,16.9c-0.2,0.8-0.4,1.7-0.6,2.6c-0.2,0.8-0.4,1.7-0.7,2.5c-0.5,1.3-1.2,2.5-2,3.5
	c-0.6,0.7-0.5,0.4-0.6,0.4c-0.1,0-0.1-0.2-0.2-0.3c-0.1-1,0-2.2,0-3.3c0.1-1.3,0.3-2.4,0.6-3.5c0.5-2.1,0.9-4.1,1.4-6.2
	C6.9,12.3,7,12.1,7,12c-0.2-0.6-0.4-1.1-0.4-1.7c-0.1-0.7,0-1.4,0.1-2C7,7.3,7.6,6.4,8.6,6c0.6-0.2,1.3-0.1,1.7,0.1
	c0.4,0.2,0.7,0.7,0.9,1.2c0.1,0.6,0,1.4-0.1,1.9c-0.3,1.2-0.6,2.1-0.9,3.3c-0.2,0.6-0.3,1.2-0.2,1.8c0.1,0.6,0.4,1,0.8,1.3
	c0.4,0.3,0.9,0.5,1.6,0.5c1.2,0,2.1-0.8,2.7-1.6c0.9-1.2,1.5-2.8,1.7-4.7c0.1-0.6,0.1-1.3,0.1-2c-0.1-1.3-0.5-2.3-1.1-3.1
	C15.1,4,14.3,3.4,13.2,3c-1-0.3-2.5-0.4-3.7-0.2c-2.3,0.4-4,1.7-4.9,3.5C4,7.3,3.7,8.4,3.7,9.8c0,1.1,0.3,1.9,0.7,2.5
	c0.1,0.2,0.3,0.4,0.5,0.6c0.2,0.3,0,0.8-0.1,1.2c-0.1,0.4-0.1,1-0.6,1c-0.2,0-0.5-0.1-0.6-0.2c-1.3-0.7-2.1-2-2.4-3.7
	c-0.2-1-0.2-2.2,0-3.2C1.2,6.9,1.6,6,2,5.2c0.8-1.5,2-2.7,3.5-3.6C6.6,1,7.8,0.6,9.3,0.3c0.5-0.1,1-0.1,1.6-0.1
	c1.7-0.1,3.2,0.3,4.3,0.8c1.2,0.5,2.2,1.3,3,2.2c0.8,0.9,1.4,2,1.8,3.3c0.2,0.7,0.4,1.4,0.4,2.3c0,0.9-0.2,1.6-0.3,2.4
	c-0.5,2.8-1.8,5.1-3.8,6.5c-0.5,0.3-1.1,0.6-1.8,0.8c-0.7,0.2-1.4,0.3-2.2,0.3c-0.8-0.1-1.4-0.3-2-0.6C9.8,17.8,9.4,17.4,9.1,16.9z"
	/>
</svg>
