<?xml version="1.0" encoding="utf-8"?>
<!-- Generator: Adobe Illustrator 21.0.2, SVG Export Plug-In . SVG Version: 6.00 Build 0)  -->
<svg version="1.1" id="SvgjsSvg1017" xmlns:svgjs="http://svgjs.com/svgjs"
	 xmlns="http://www.w3.org/2000/svg" xmlns:xlink="http://www.w3.org/1999/xlink" x="0px" y="0px" viewBox="0 0 26 22"
	 style="enable-background:new 0 0 26 22;" xml:space="preserve">
<style type="text/css">
	.st0{fill:#FFFFFF;}
</style>
<title>twitter</title>
<desc>Created with Avocode.</desc>
<path id="SvgjsPath1019" class="st0" d="M17.5,0.6c2,0,3.1,0.7,4.2,1.6c0.9-0.1,2-0.6,2.7-0.9C24.6,1.2,24.8,1.1,25,1
	c-0.4,1-0.9,1.9-1.7,2.5c-0.2,0.1-0.4,0.3-0.6,0.4v0c1.1,0,2.1-0.5,3-0.8c0,0,0,0,0,0c-0.5,0.7-1.1,1.5-1.8,2
	c-0.3,0.2-0.5,0.4-0.8,0.6c0,1.2,0,2.4-0.2,3.4C21.5,15,18.1,19,12.6,20.8c-2,0.6-5.2,0.9-7.4,0.3C4,20.8,3,20.5,2,20.1
	c-0.5-0.2-1-0.5-1.5-0.8c-0.2-0.1-0.3-0.2-0.5-0.3c0.5,0,1.1,0.2,1.7,0.1c0.5-0.1,1-0.1,1.5-0.2c1.2-0.3,2.2-0.6,3.2-1.1
	c0.4-0.3,1.1-0.6,1.4-0.9c-0.6,0-1.1-0.1-1.6-0.3C4.6,16,3.6,14.9,3,13.2c0.5,0,2,0.2,2.3-0.1c-0.6,0-1.3-0.4-1.7-0.7
	c-1.4-0.9-2.5-2.3-2.5-4.5C1.3,8,1.5,8.1,1.6,8.2C2,8.3,2.3,8.4,2.8,8.5c0.2,0,0.5,0.1,0.7,0.1c0,0,0,0,0,0C3.2,8.2,2.7,8,2.5,7.7
	C1.6,6.6,0.8,4.9,1.3,2.9c0.1-0.5,0.3-1,0.6-1.4c0,0,0,0,0,0C2,1.8,2.2,1.9,2.4,2.1c0.4,0.6,1,1.1,1.6,1.5C5.8,5.1,7.6,6,10.4,6.7
	C11.1,6.9,11.9,7,12.7,7c-0.2-0.7-0.2-1.8,0-2.5c0.5-1.7,1.5-2.9,3-3.5c0.4-0.2,0.8-0.3,1.2-0.4C17.1,0.6,17.3,0.6,17.5,0.6z"/>
</svg>
